<?xml version="1.0" encoding="iso-8859-1"?>
<!-- Generator: Adobe Illustrator 16.0.0, SVG Export Plug-In . SVG Version: 6.00 Build 0)  -->
<!DOCTYPE svg PUBLIC "-//W3C//DTD SVG 1.1//EN" "http://www.w3.org/Graphics/SVG/1.1/DTD/svg11.dtd">
<svg version="1.1" id="Capa_1" xmlns="http://www.w3.org/2000/svg" xmlns:xlink="http://www.w3.org/1999/xlink" x="0px" y="0px"
	 width="317.872px" height="317.873px" viewBox="0 0 317.872 317.873" style="enable-background:new 0 0 317.872 317.873;"
	 xml:space="preserve">
<g>
	<g>
		<path d="M250.831,129.121c14.117,0,27.807,3.984,39.757,11.459V46.585h-3.111l-102.737,77.826l23.646,17.906
			C220.472,134.006,235.085,129.121,250.831,129.121z"/>
		<polygon points="2.832,46.585 0,46.585 0,200.96 4.472,200.96 103.33,124.411 		"/>
		<path d="M200.549,148.582l-23.857-18.075l-33.099,25.078l-32.32-25.028L20.348,200.96l-1.64,1.271h157.087
			c0.011-0.427,0.043-0.849,0.069-1.271C176.771,180.209,186.1,161.652,200.549,148.582z"/>
		<polygon points="111.267,118.265 115.238,121.339 119.206,124.411 143.651,143.343 168.645,124.411 172.663,121.366 
			176.691,118.315 271.382,46.585 18.708,46.585 		"/>
		<path d="M300.312,159.1c-1.545-1.685-3.153-3.314-4.862-4.833c-1.55-1.382-3.185-2.666-4.861-3.902
			c-0.971-0.72-1.936-1.438-2.943-2.102c-10.567-6.961-23.203-11.043-36.809-11.043l0,0c-13.088,0-25.27,3.812-35.585,10.297
			c-1.455,0.915-2.858,1.88-4.229,2.895c-1.345,1-2.663,2.025-3.934,3.117c-3.364,2.905-6.434,6.138-9.16,9.652
			c-8.179,10.531-13.273,23.567-13.964,37.779c-0.026,0.422-0.048,0.844-0.068,1.271c-0.021,0.675-0.101,1.34-0.101,2.021
			c0,0.527,0.068,1.044,0.079,1.565c0.011,0.428,0.053,0.85,0.063,1.271c0.053,1.196,0.074,2.404,0.189,3.586
			c0.011,0.121,0,0.242,0.011,0.363c0.032,0.312,0.095,0.606,0.127,0.913c0.648,5.61,2.02,11,3.966,16.104
			c5.405,14.207,15.482,26.104,28.354,33.803c1.43,0.854,2.896,1.656,4.394,2.405c2.995,1.497,6.117,2.778,9.35,3.817
			c6.46,2.083,13.353,3.206,20.508,3.206c37.02,0,67.036-30.016,67.036-67.035c0-16.116-5.695-30.893-15.166-42.457
			C301.936,160.867,301.124,159.986,300.312,159.1z M214.613,243.385l5.399-15.857l10.458,10.457L214.613,243.385z M279.424,196.135
			l-3.465,3.465l-1.36,1.36l-4.862,4.862l-1.266,1.266l-3.597,3.597l-1.266,1.266l-20.798,20.798l-17.661-17.655l3.143-3.143
			l1.271-1.266l3.586-3.597l1.271-1.266l3.592-3.592l1.266-1.271l13.114-13.109l3.465-3.471l3.47-3.465l5.158-5.157l17.655,17.661
			L279.424,196.135z M295.449,180.205l-4.861,4.861l-2.764,2.764l-17.655-17.655l10.505-10.508l9.914,9.922l4.861,4.857l2.88,2.879
			L295.449,180.205z"/>
	</g>
</g>
<g>
</g>
<g>
</g>
<g>
</g>
<g>
</g>
<g>
</g>
<g>
</g>
<g>
</g>
<g>
</g>
<g>
</g>
<g>
</g>
<g>
</g>
<g>
</g>
<g>
</g>
<g>
</g>
<g>
</g>
</svg>
