<?xml version="1.0" encoding="UTF-8"?>
<svg xmlns="http://www.w3.org/2000/svg" xmlns:xlink="http://www.w3.org/1999/xlink" width="100pt" height="100pt" viewBox="0 0 100 100" version="1.1">
<g id="surface703">
<path style=" stroke:none;fill-rule:nonzero;fill:rgb(80%,80%,80%);fill-opacity:1;" d="M 44.398438 19.199219 C 31.269531 19.199219 20.601562 29.871094 20.601562 43 C 20.601562 56.128906 31.269531 66.800781 44.398438 66.800781 C 49.59375 66.800781 54.398438 65.125 58.3125 62.292969 L 76.730469 80.667969 L 80.667969 76.730469 L 62.46875 58.488281 C 66.046875 54.320312 68.199219 48.910156 68.199219 43 C 68.199219 29.871094 57.53125 19.199219 44.398438 19.199219 Z M 44.398438 22 C 56.015625 22 65.398438 31.382812 65.398438 43 C 65.398438 54.617188 56.015625 64 44.398438 64 C 32.785156 64 23.398438 54.617188 23.398438 43 C 23.398438 31.382812 32.785156 22 44.398438 22 Z M 44.398438 22 "/>
</g>
</svg>
